<?xml version="1.0" standalone="no"?><!DOCTYPE svg PUBLIC "-//W3C//DTD SVG 1.1//EN" "http://www.w3.org/Graphics/SVG/1.1/DTD/svg11.dtd"><svg t="1526216825526" class="icon" style="" viewBox="0 0 1025 1024" version="1.1" xmlns="http://www.w3.org/2000/svg" p-id="1180" xmlns:xlink="http://www.w3.org/1999/xlink" width="200.1953125" height="200"><defs><style type="text/css"></style></defs><path d="M883.05618 327.590512a31.96005 31.96005 0 0 0-31.96005 31.96005V926.841448a31.96005 31.96005 0 0 1-31.96005 31.96005h-607.240949a31.96005 31.96005 0 0 1-31.96005-31.96005V357.952559a31.96005 31.96005 0 0 0-63.9201 0V926.841448a95.88015 95.88015 0 0 0 95.88015 95.88015h607.240949a95.88015 95.88015 0 0 0 95.88015-95.88015V359.550562a31.96005 31.96005 0 0 0-31.96005-31.96005zM993.957553 206.781523h-117.612984V63.9201a63.9201 63.9201 0 0 0-63.9201-63.9201H210.616729a63.9201 63.9201 0 0 0-63.9201 63.9201v142.861423H31.96005a31.96005 31.96005 0 0 0 0 63.9201h961.997503a31.96005 31.96005 0 0 0 0-63.9201z m-181.533084 0H210.616729V63.9201h601.80774z" fill="#d81e06" p-id="1181"></path><path d="M360.189763 818.177278V373.293383a34.836454 34.836454 0 0 0-31.96005-37.073658 34.836454 34.836454 0 0 0-31.96005 37.073658V818.177278a34.836454 34.836454 0 0 0 31.96005 37.073658 34.836454 34.836454 0 0 0 31.96005-37.073658zM548.114856 818.177278V373.293383a34.836454 34.836454 0 0 0-31.96005-37.073658 34.836454 34.836454 0 0 0-31.960049 37.073658V818.177278a34.836454 34.836454 0 0 0 31.960049 37.073658 34.836454 34.836454 0 0 0 31.96005-37.073658zM736.679151 818.177278V373.293383a31.96005 31.96005 0 1 0-63.9201 0V818.177278a31.96005 31.96005 0 1 0 63.9201 0z" fill="#d81e06" p-id="1182"></path></svg>